<svg width="22" height="29" viewBox="0 0 22 29" fill="none" xmlns="http://www.w3.org/2000/svg">
<path d="M11 0C8.08368 0.00345742 5.28779 1.1692 3.22563 3.24151C1.16348 5.31382 0.00345217 8.12349 1.17029e-05 11.0542C-0.00348119 13.4491 0.774992 15.7791 2.21601 17.6867C2.21601 17.6867 2.51601 18.0836 2.56501 18.1409L11 28.1379L19.439 18.1359C19.483 18.0826 19.784 17.6867 19.784 17.6867L19.785 17.6837C21.2253 15.7769 22.0034 13.448 22 11.0542C21.9966 8.12349 20.8365 5.31382 18.7744 3.24151C16.7122 1.1692 13.9163 0.00345742 11 0ZM11 15.0739C10.2089 15.0739 9.43552 14.8381 8.77772 14.3964C8.11993 13.9547 7.60724 13.327 7.30449 12.5925C7.00174 11.8579 6.92252 11.0497 7.07687 10.27C7.23121 9.49023 7.61217 8.77399 8.17158 8.21182C8.73099 7.64966 9.44372 7.26682 10.2196 7.11171C10.9956 6.95661 11.7998 7.03622 12.5307 7.34046C13.2616 7.6447 13.8864 8.15992 14.3259 8.82095C14.7654 9.48199 15 10.2592 15 11.0542C14.9987 12.1199 14.5768 13.1415 13.827 13.8951C13.0771 14.6486 12.0605 15.0726 11 15.0739Z" fill="#EB7F00"/>
</svg>
