<svg width="360" height="72" viewBox="0 0 360 72" fill="none" xmlns="http://www.w3.org/2000/svg">
<path d="M0 24.0476C0 16.5777 0 12.8428 1.22034 9.89664C2.84746 5.96842 5.96842 2.84746 9.89664 1.22034C12.8428 0 16.5777 0 24.0476 0H335.952C343.422 0 347.157 0 350.103 1.22034C354.032 2.84746 357.153 5.96842 358.78 9.89664C360 12.8428 360 16.5777 360 24.0476V47.28C360 54.7498 360 58.4848 358.78 61.4309C357.153 65.3591 354.032 68.4801 350.103 70.1072C347.157 71.3276 343.422 71.3276 335.952 71.3276H24.0476C16.5777 71.3276 12.8428 71.3276 9.89664 70.1072C5.96842 68.4801 2.84746 65.3591 1.22034 61.4309C0 58.4848 0 54.7498 0 47.28V24.0476Z" fill="#E68B1F"/>
</svg>
