<svg width="28" height="27" viewBox="0 0 28 27" fill="none" xmlns="http://www.w3.org/2000/svg">
<g style="mix-blend-mode:darken" filter="url(#filter0_d_208_8466)">
<path d="M14 15.27L20.18 19L18.54 11.97L24 7.24L16.81 6.63L14 0L11.19 6.63L4 7.24L9.46 11.97L7.82 19L14 15.27Z" fill="#F9D9B3"/>
<path d="M14.2584 14.8419L14 14.686L13.7416 14.8419L8.57613 17.9596L9.94693 12.0836L10.0155 11.7897L9.78739 11.5921L5.22308 7.63803L11.2323 7.12821L11.5327 7.10272L11.6504 6.82511L14 1.2813L16.3496 6.82511L16.4673 7.10272L16.7677 7.12821L22.7769 7.63803L18.2126 11.5921L17.9845 11.7897L18.0531 12.0836L19.4239 17.9596L14.2584 14.8419Z" stroke="black"/>
</g>
<defs>
<filter id="filter0_d_208_8466" x="0" y="0" width="28" height="27" filterUnits="userSpaceOnUse" color-interpolation-filters="sRGB">
<feFlood flood-opacity="0" result="BackgroundImageFix"/>
<feColorMatrix in="SourceAlpha" type="matrix" values="0 0 0 0 0 0 0 0 0 0 0 0 0 0 0 0 0 0 127 0" result="hardAlpha"/>
<feOffset dy="4"/>
<feGaussianBlur stdDeviation="2"/>
<feComposite in2="hardAlpha" operator="out"/>
<feColorMatrix type="matrix" values="0 0 0 0 0 0 0 0 0 0 0 0 0 0 0 0 0 0 0.25 0"/>
<feBlend mode="normal" in2="BackgroundImageFix" result="effect1_dropShadow_208_8466"/>
<feBlend mode="normal" in="SourceGraphic" in2="effect1_dropShadow_208_8466" result="shape"/>
</filter>
</defs>
</svg>
